<svg id="Camada_1" data-name="Camada 1" xmlns="http://www.w3.org/2000/svg" viewBox="0 0 1000 756.94"><defs><style>.cls-1{fill:#4f4394;}.cls-2{fill:#fff;}.cls-3{fill:#f5ed86;}.cls-4{fill:#f295a0;}.cls-5{fill:#8dcdc7;}.cls-6{fill:#65bfb4;}.cls-7{fill:#f2949e;}.cls-8{fill:#f9b03c;}</style></defs><title>Marca_projeto</title><rect class="cls-1" x="92.3" y="85.09" width="799.06" height="572.66"/><path class="cls-2" d="M384,477.42a7.31,7.31,0,0,0,4.95,2.82,6.85,6.85,0,0,0,5.09-1.58c2.46-1.78,5-5.22,7.68-10.25,2.28-4.37,5.21-11.63,8.71-21.57a2,2,0,0,0-.18-1.39,1.64,1.64,0,0,0-1-.89,1.61,1.61,0,0,0-1.34.1,1.93,1.93,0,0,0-1,1c-3.34,9.67-6.16,16.77-8.34,21-2.41,4.62-4.57,7.6-6.62,9.1a4.36,4.36,0,0,1-2.44,1,4.77,4.77,0,0,1-2.93-1.84c-.62-.72-1.31-2.08-1.59-6.63a76.91,76.91,0,0,1,.71-11.41c.38-3.61,1-7.8,1.84-12.45q1.23-7.34,1.38-8.54a1.79,1.79,0,0,0-.37-1.3,1.63,1.63,0,0,0-1.2-.64,1.77,1.77,0,0,0-.32,0,1.53,1.53,0,0,0-1,.33,2,2,0,0,0-.72,1.33c-.08.61-.55,3.47-1.4,8.54s-1.44,9.08-1.8,12.23a91,91,0,0,0-.69,12.18C381.6,472.73,382.47,475.72,384,477.42Z"/><path class="cls-2" d="M386.25,422.64a2.62,2.62,0,1,0,4.51,1.86,2.48,2.48,0,0,0-.8-1.87,2.45,2.45,0,0,0-1.85-.79A2.48,2.48,0,0,0,386.25,422.64Z"/><path class="cls-2" d="M451.72,471.17c2.69-4,5.77-11,9.15-20.82a1.62,1.62,0,0,0,0-1.4,1.65,1.65,0,0,0-1-.88,1.57,1.57,0,0,0-1.35.1,1.4,1.4,0,0,0-.79.89c-3.48,9.77-6.4,16.28-8.95,20-5.78,8.67-12,8.86-16.13,7.49l-4.66-1.29.93-2.12c.36-.81.73-1.67,1.09-2.58.54-1.3.9-4-.37-9.76a74.6,74.6,0,0,0-4-13,62.4,62.4,0,0,0-5.42-11.43,14.82,14.82,0,0,0-3-3.4c-2-1.5-3.22-1.07-4.17-.47a1.14,1.14,0,0,0-.47.45,9.25,9.25,0,0,1-.75,1.09c-.14.32-.31.73-.5,1.25l-2,4.58c-2.36,5.38-3.9,10.07-4,10.25-.23.47.46-1.31.62-.83s.57.09,1,.32a1.61,1.61,0,0,0,1.34.1,2.81,2.81,0,0,0,1.46-1.09c.23-.41.48-1.75,2.87-7.39l2.59-5.84,2,3a50.85,50.85,0,0,1,5.12,10.65,77.83,77.83,0,0,1,3.73,12.49c1.08,5.12.95,6.68.64,7.6a15,15,0,0,1-1.64,3.28l-1.1,1.66-1.67-1.1q-.51-.35-.93-.69c-.21-.16-1.31-1.18-3.25-3-2.09-1.9-3.88-3.46-5.35-4.66a20.67,20.67,0,0,0-6.39-3.26,9.28,9.28,0,0,0-2.53-.37,7,7,0,0,0-4.42,1.56,6.18,6.18,0,0,0-2.6,4.53,7.31,7.31,0,0,0,1.08,4.82,18.38,18.38,0,0,0,8.94,7.55c4.57,2.06,8.7,2.53,12.67,1.44a14,14,0,0,0,4.64-2.32l.86-.65,6.52,2.14C439.4,482.56,446,479.66,451.72,471.17Zm-34.59,6.46a13.91,13.91,0,0,1-2,.16,16.61,16.61,0,0,1-6.79-1.57,14.74,14.74,0,0,1-7.23-6c-1.51-2.76.07-4.43.58-4.87a3.93,3.93,0,0,1,3.9-.53,14.34,14.34,0,0,1,5.09,2.85,36.61,36.61,0,0,1,5.08,4.36l5.6,5Z"/><path class="cls-2" d="M594.21,469.92c.58-1.27,1.06-2.35,1.42-3.26a34.8,34.8,0,0,0,1.13-3.44c.41-1.44.67-2.48.81-3.11s.42-1.87.84-3.67.66-2.83.75-3.37a1.68,1.68,0,0,0-.14-1.49,1.75,1.75,0,0,0-1.13-.79,1.63,1.63,0,0,0-1.36.23,1.44,1.44,0,0,0-.72,1.05c-.23.83-.49,2-.85,3.64-.39,1.83-.7,3-.9,3.63s-.45,1.47-.81,2.77-.74,2.54-1,3.33-.71,1.77-1.25,2.93-1.16,2.36-1.84,3.54c-3,5.33-6.5,7.95-10.8,7.71a12.3,12.3,0,0,1-5-1.5l-1.88-1,1.13-1.8c2.88-4.64,4.47-10.47,4.74-17.37.35-7.43-.83-13.57-3.52-18.26a10.35,10.35,0,0,0-5.26-5l-2.24-1.15a1.72,1.72,0,0,0-1.39-.73l-.32,0c-4.26.73-8.47,3.61-12.43,8.51a46.3,46.3,0,0,0-8.19,15.72c-1.84,6.22-2.16,11.76-1,16.42,1.55,5.57,5,8.81,10.62,9.88s10.2.27,14.23-2.83l1.1-.85,1.18.73a17.22,17.22,0,0,0,8,2.78c5.86.36,10.42-2.9,14.25-9.64C593,472.41,593.61,471.19,594.21,469.92Zm-30,8.73a13,13,0,0,1-6.56,1.7,17.49,17.49,0,0,1-3.38-.35,10,10,0,0,1-7.83-7.43c-1-4-.7-8.88,1-14.44a46.38,46.38,0,0,1,3.65-8.9l3.93-7.37-.17,8.35a34.51,34.51,0,0,0,2.46,13.18,39.29,39.29,0,0,0,6.86,11.66l2.3,2.3Zm5.92-6.35-1.41,2.51-1.86-2.2a36.14,36.14,0,0,1-7.63-15.26c-1.36-5.86-.91-11.12,1.35-15.63.35-.79.69-1.52,1-2.11l.56-1.1.73-.13a4.67,4.67,0,0,1,4.47-.35c1.17.31,2.4,1.52,3.41,3.55,2.27,3.83,3.31,9.29,3,16.1A31.91,31.91,0,0,1,570.1,472.3Z"/><path class="cls-2" d="M646.58,516.15a9.58,9.58,0,0,0,6.74,2.15,9.91,9.91,0,0,0,5.59-2.71A20.38,20.38,0,0,0,664.47,505c.9-3.65,1.59-9.46,2-17.32l.05-.87.67-.56a78.79,78.79,0,0,0,10.45-10.52,51.76,51.76,0,0,0,7.49-11.58,38.3,38.3,0,0,0,1.25-5.95c.09-.61.21-1.36.35-2.18s.25-1.48.34-2.12c.07-.49.12-.8.13-.94a2.07,2.07,0,0,0-.4-1.52,1.51,1.51,0,0,0-1.1-.67,1.87,1.87,0,0,0-1.35.34,1.74,1.74,0,0,0-.75,1.14c0,.08,0,.49-.13,1.1l-.56,4.3c-.71,4-1,4.71-1.17,5.13-2.2,5-6.06,10.3-11.43,15.77l-3.59,3.66.17-5.12c.46-14.22.32-25.49-.41-33.51l0-.18-.4-1.08h-.55l-.54-1.18a13.16,13.16,0,0,0-4.34-5.61,7.86,7.86,0,0,0-6.91-1.12c-4.3,1-8.52,4.51-12.59,10.41a45.78,45.78,0,0,0-7.67,17.58c-1.27,7.16-.1,12.29,3.59,15.65,3.11,2.79,6.28,3.94,9.77,3.56a14.9,14.9,0,0,0,8.2-4.61A28.12,28.12,0,0,0,659.8,471l3.87-6.56-.16,7.62q-.15,6.48-.42,12.1l-.05.94-1.31,1a70.35,70.35,0,0,1-6.1,3.72,58.7,58.7,0,0,0-6.49,4.11A19.28,19.28,0,0,0,643,504.24C641.71,509.57,642.88,513.47,646.58,516.15Zm16.35-70.26c-.07.6-.11,1-.12,1.16a124.39,124.39,0,0,1-1.87,12.46,35.88,35.88,0,0,1-3.12,7.86,28.48,28.48,0,0,1-5.2,7.15c-2.17,2.11-4.23,3.26-6.29,3.5a7,7,0,0,1-.79,0,9.17,9.17,0,0,1-6.09-2.63c-2.69-2.48-3.51-6.63-2.45-12.37a43.56,43.56,0,0,1,7-16.17c3.69-5.23,7.13-8.19,10.53-9.07a4.93,4.93,0,0,1,4,.74c1.43.94,2.68,2.76,3.77,5.5l0,.11a1.46,1.46,0,0,0,.18.36l.41.62Zm-16.37,59.05a14.8,14.8,0,0,1,4.86-8.33,38.8,38.8,0,0,1,5.9-3.84l5.5-2.75-.3,3.54a79.65,79.65,0,0,1-1.44,10.65,17.59,17.59,0,0,1-4.64,8.84,6.27,6.27,0,0,1-3.35,1.66l-.51,0a6.51,6.51,0,0,1-3.89-1.54C647.06,512,645.34,509.62,646.56,504.94Z"/><path class="cls-2" d="M718.08,470.53a54.07,54.07,0,0,0,2.69-6.07c.85-2.24,1.73-4.65,2.66-7.26l1.94-5.84a1.81,1.81,0,0,0,0-1.48,1.63,1.63,0,0,0-1-.92,1.66,1.66,0,0,0-1.33,0,1.62,1.62,0,0,0-.92.95c-.63,1.71-1.37,3.84-2.2,6.34s-1.67,4.8-2.42,6.74a58.48,58.48,0,0,1-2.61,5.74c-2.89,5.46-7,8.86-12.23,10.11-6.56,1.53-11.33.16-14.17-4a16.42,16.42,0,0,1-2.43-7.5l-.31-3,2.87.88a13.19,13.19,0,0,0,8.19-.14c4.1-1.33,7.62-4.21,10.43-8.56,2.73-4.18,4-8.34,3.74-12.38-.24-5-2.49-8.11-7.07-9.72a10.75,10.75,0,0,0-3.33-.55,9.2,9.2,0,0,0-4.1,1,18.83,18.83,0,0,0-6.71,5.64,37.77,37.77,0,0,0-7,18.1c-1.13,7.6-.16,13.72,2.9,18.22,3.73,5.65,9.53,7.46,17.77,5.48C709.9,480.79,714.69,477,718.08,470.53ZM686.22,458.7a34.78,34.78,0,0,1,6.41-16.05c3.27-4.39,6.66-6,10.13-4.71,2.84.86,4.53,3.15,4.66,6.41s-.84,6.6-3.12,10.13a17.45,17.45,0,0,1-8.57,7.24,10.13,10.13,0,0,1-8.54-1L686,460Z"/><path class="cls-2" d="M338.7,469.31a41,41,0,0,1-3.67,3.93A15,15,0,0,1,328.9,477a4.19,4.19,0,0,1-4.5-1.91c-.95-1.18-1.54-3.23-1.76-6.32a67.45,67.45,0,0,1,.14-9.67c0-.53.09-2.21.28-4.91l.42-5.6c.09-1.16.11-2.59.07-4.28a19.06,19.06,0,0,0-.44-3.91,9.12,9.12,0,0,0-3.57-6.29,7.76,7.76,0,0,0-7.32-.84c-4.2,1.48-7.78,4.94-10.61,10.24l-2.55,4.79-1.17-5.3a18.21,18.21,0,0,0-3.61-8.08c-1.22-1.34-3.34-1.92-6.32-1.7-3.78.33-7.1,2.17-10.14,5.63L276,441l-1.4-2.4a1.67,1.67,0,0,0-2.64-.18,1.41,1.41,0,0,0-.49,1.13c-.1,4.69-.38,9.77-.85,15.16-.32,1.39-.55,2.42-.73,3.41-.36,2.69-.87,7-1.52,12.88l-.42,4.86.24,1.53,0,.09.27.31a1.28,1.28,0,0,0,.56.35l.82.22a9.54,9.54,0,0,0,1.16-.61,4,4,0,0,0,.44-.4l.12-.7a6.91,6.91,0,0,1,.19-1.16c1-7.69,1.78-14.39,2.34-19.89a43.47,43.47,0,0,1,4-10.85c2.88-4.91,6.28-7.55,10.11-7.89a9.65,9.65,0,0,0,1.59-.1l1.15-.24.76.87c1.71,1.94,2.74,5.25,3.15,10.12a61.24,61.24,0,0,1-.28,11.73s0,.36-1.27,9.85l-.56,3.94c0,.1.06.35.1.49a2.72,2.72,0,0,0,.34.87,1.81,1.81,0,0,0,.8.54,1.42,1.42,0,0,0,1.22,0,1.83,1.83,0,0,0,.94-.71l.24-.64a6.69,6.69,0,0,0,.36-1.15c.23-.87.61-2.74,1.16-5.61s1.17-5.67,1.78-8,1.32-4.68,2.08-6.88c3.06-8.54,6.9-13.48,11.76-15.1a5.06,5.06,0,0,1,1.88-.39,3.79,3.79,0,0,1,2.1.61,6.1,6.1,0,0,1,2.24,3.91c.14,1.08.21,2.25.26,3.72a33,33,0,0,1-.08,3.95c-.09,1.06-.21,2.77-.34,5.12s-.26,4.18-.36,5.31a79.63,79.63,0,0,0-.13,10.19,17.18,17.18,0,0,0,2.44,8.11c2.13,2.88,4.7,3.95,8.05,3.24a19.38,19.38,0,0,0,7.9-4.58c1.11-1,2.09-2.28,3.14-3.41A22.44,22.44,0,0,1,338.7,469.31Z"/><path class="cls-2" d="M384.09,470a20.74,20.74,0,0,1-3.74,5.06,7.49,7.49,0,0,1-7,1.84c-2.71-.74-4.71-2.69-6-5.81a30.68,30.68,0,0,1-1.27-9.71c0-.3.09-1.4.3-3.29.08-1.53.22-3.16.42-4.79,0,0,0-.09.86-4.75l.31-1.22a9.75,9.75,0,0,0,.54-1.18,6,6,0,0,0,.38-2.33,2.56,2.56,0,0,0-.34-1.17h-1.21v-2.42a19.44,19.44,0,0,0-.6-2.45c-.58-1.28-2.24-2.82-4.86-4.37-4.55-2.47-8.89-2.1-13.18,1.14-3.31,2.63-6.17,6.88-8.46,12.59A50.26,50.26,0,0,0,336.62,463c-.25,5.79.77,10.09,3,12.76,3,3.58,6.24,4.79,9.81,3.71,2.75-.81,5.46-3,8.07-6.55a24.2,24.2,0,0,0,2.25-3.3l2.55-4.47,1.13,5a11.51,11.51,0,0,0,.6,1.9c1.6,4.45,4.32,7.12,8.36,8.25a10.44,10.44,0,0,0,10.19-2.53,19.79,19.79,0,0,0,3.14-3.59A25.43,25.43,0,0,1,384.09,470Zm-19.95-24.23c-.23,1.61-.5,3.52-.78,5.9l0,1.09-.11.32a6,6,0,0,0-.23.8,57.24,57.24,0,0,1-3.21,8.07,46.82,46.82,0,0,1-5.12,8.76c-2.23,3-4.26,4.72-6.18,5.33a4.61,4.61,0,0,1-1.29.19c-1.31,0-2.95-.59-4.72-2.6s-2.54-5.41-2.32-10.38a42.27,42.27,0,0,1,3.37-14.82c2-5.12,4.41-8.73,7.33-11a8,8,0,0,1,9.38-.72c1.5.8,3.21,1.7,3.28,3.09a8.94,8.94,0,0,1,.21,1.16l.21,1.78h.24l.14,2.63Z"/><path class="cls-2" d="M543.09,467.88c-.13.27-.24.58-.37.84-1.77,3.43-3.69,5.79-5.87,7.2a10.6,10.6,0,0,1-8.64.95c-2.39-.72-4.5-2.61-6.47-5.77-1.51-2.8-2.42-6.45-2.82-11.25l-.12-1.48,1.38-.55a.53.53,0,0,0,.26-.18,114.86,114.86,0,0,0,26-50.38,26,26,0,0,0,.81-10.86,10.33,10.33,0,0,0-2.18-5.56,6.26,6.26,0,0,0-5-2.25,9.58,9.58,0,0,0-1.37.11c-2,.36-4.08,1.79-6.19,4.22a39.19,39.19,0,0,0-4.47,7.41,103.18,103.18,0,0,0-5.64,14.31,147.68,147.68,0,0,0-6.5,28.76c-1.81,13.41-.91,23.25,2.67,29.26,2.35,4.12,5.21,6.68,8.51,7.65a14,14,0,0,0,11.82-1.46,19.34,19.34,0,0,0,5.93-6.51A21.08,21.08,0,0,1,543.09,467.88ZM516.7,454.94l.55-7.17c.09-1.27.24-2.54.43-3.8a154.65,154.65,0,0,1,5.53-26.18,91.22,91.22,0,0,1,4.72-12.88,28.51,28.51,0,0,1,3.61-6.28c1.29-1.68,2.24-2.46,3.25-2.67a2.68,2.68,0,0,1,2.65.67,6.35,6.35,0,0,1,1.29,3.8,24.58,24.58,0,0,1-.46,8.84,110.5,110.5,0,0,1-17.4,39.8Z"/><path class="cls-2" d="M635.59,475.4a16.62,16.62,0,0,1-1.37,1.68,9.81,9.81,0,0,1-5.42,2,6.14,6.14,0,0,1-4.07-.84,6.24,6.24,0,0,1-2.22-3.32c-1-2.6-1.47-6.83-1.37-12.85q0-1.08.21-6.9t.21-8.19a29.08,29.08,0,0,0-.77-6.21,7.84,7.84,0,0,0-2.74-4.64c-1.58-1.17-4.14-2.27-8.45,1.44a35,35,0,0,0-6.19,7.81l-3.7,5.91v-7a31.26,31.26,0,0,1,.16-3.13,1.54,1.54,0,0,0-.42-1.21,1.79,1.79,0,0,0-1.28-.67,1.66,1.66,0,0,0-1.23.41,1.85,1.85,0,0,0-.66,1.28c-.56,8.46-1.46,16.95-2.68,25.18-.48,2.26-1,4.89-1.54,8-.37,1.83-.6,3.13-.69,3.93l0,1.18a1.62,1.62,0,0,0,.93,1.26,1.56,1.56,0,0,0,2.1-.43,4.36,4.36,0,0,0,.45-.53l.16-.91c.7-4.05,1.4-7.86,2.05-11.76a16.17,16.17,0,0,1,.67-2.51,69.91,69.91,0,0,1,2.85-6.82c1.64-3.28,3.36-6.44,5.14-9.42,2.29-3.81,4.37-6.41,6.36-8a9.37,9.37,0,0,1,1.89-1.34l1.57-.78,1,1.46a6.78,6.78,0,0,1,.83,2.16A27.1,27.1,0,0,1,618,447c0,1.88,0,4.6-.14,8.26s-.19,6-.29,6.9c-.08,6.25.45,11,1.57,14.06a9.73,9.73,0,0,0,3.48,4.94,9.12,9.12,0,0,0,6.37,1.48,13.82,13.82,0,0,0,7.45-2.78,15,15,0,0,0,1.32-1.43A20.3,20.3,0,0,1,635.59,475.4Z"/><path class="cls-3" d="M249.58,336.61a3.49,3.49,0,0,1-1.12-1.54,3.74,3.74,0,0,1,.07-2.94,3.67,3.67,0,0,1,2-2h.14q2.24-12.32,4.48-22.12a232.17,232.17,0,0,1,7.14-25.21,40.09,40.09,0,0,1,4.35-9.11c1.86-3.08,3.92-5,6.16-5.74a6.25,6.25,0,0,1,5.32.14,7.33,7.33,0,0,1,3.22,3.64,21.43,21.43,0,0,1,1.54,8.41,56.54,56.54,0,0,1-1.4,14.28q-5.6,25.08-17.51,36a25,25,0,0,0,9.25-1.55,25.31,25.31,0,0,0,9.94-5.6,35.15,35.15,0,0,0,7.15-10.08,3.74,3.74,0,0,1,5-1.68,3.74,3.74,0,0,1,1.68,5,43.74,43.74,0,0,1-8.69,12.32,32.29,32.29,0,0,1-12.88,7.29A34.08,34.08,0,0,1,264.57,338a60.23,60.23,0,0,1,1.54,6.86,74.69,74.69,0,0,1-.28,21.29,41,41,0,0,1-3.09,11.76q-3.36,6.58-9,7.28a7,7,0,0,1-5.74-1.67,9.77,9.77,0,0,1-2.66-4.49,29.23,29.23,0,0,1-.84-10.5c.09-1.68.28-3.46.56-5.32s.51-3.6.7-4.9l.84-4.07c.18-1.31.28-2,.28-2.1Zm3.36,41q1.55-.13,2.94-3.08A31.47,31.47,0,0,0,258.4,365a61.84,61.84,0,0,0,.14-19.05,38.18,38.18,0,0,0-1.68-7.14l-2.38,14.42c-.09.28-.28,1.08-.56,2.38l-.56,3.78c-.28,1.31-.54,2.85-.77,4.63s-.4,3.4-.49,4.9a26.42,26.42,0,0,0,.42,7.84Zm21.85-102.09a8.18,8.18,0,0,0-1.68,2.1,39,39,0,0,0-3.64,7.84q-3.36,8.55-6.86,24.23-1.83,7.84-3.09,14.56,9.68-9.37,14.71-31.51a51.25,51.25,0,0,0,1.12-12.46A25.19,25.19,0,0,0,274.79,275.55Z"/><path class="cls-3" d="M321.43,307.34a.38.38,0,0,1,.27.14,4.31,4.31,0,0,1,1.26,2.8,6.78,6.78,0,0,1-.42,2.94,6.5,6.5,0,0,1-.7,1.68l-.14.7q-.84,4.48-.84,4.62c-.19,1.59-.33,3.18-.42,4.76-.19,1.78-.28,2.8-.28,3.08a29.07,29.07,0,0,0,1.12,9q1.55,3.78,4.62,4.62a5.48,5.48,0,0,0,5.19-1.4q2.52-2.24,5-7.7a87.76,87.76,0,0,0,3.78-10.79q2.65-8.4,2.94-9.1a3.74,3.74,0,0,1,6.93-.28,3.42,3.42,0,0,1,.07,2.8c-.09.38-1,3.31-2.66,8.82a103.31,103.31,0,0,1-4.2,11.77q-3.08,6.86-7,10.22a12.4,12.4,0,0,1-12.05,2.94q-7-2-9.66-9.38a13.15,13.15,0,0,1-.7-2.24,25.77,25.77,0,0,1-2.38,3.5q-4.35,5.88-9.1,7.28-6.59,2-11.91-4.34-3.92-4.62-3.5-14.14a51.55,51.55,0,0,1,3.78-16.53q3.64-9.1,9.11-13.44Q307,294,315,298.38q4.49,2.65,5.74,5.46a18.13,18.13,0,0,1,.71,3.08Zm-7.15,4.06c-.09-.65-.23-1.82-.42-3.5a5,5,0,0,0-.28-1.26c.09-.19-.65-.7-2.24-1.54a6,6,0,0,0-7.14.56q-3.93,3.07-6.72,10.22A40.27,40.27,0,0,0,294.25,330q-.28,6.57,1.82,9c1.41,1.59,2.71,2.19,3.93,1.82q2.24-.71,5.18-4.62a44.49,44.49,0,0,0,4.9-8.41,54.47,54.47,0,0,0,3.08-7.7c.09-.37.19-.7.28-1v-1q.42-3.64.84-5.88a1.62,1.62,0,0,1,.14-.7A.13.13,0,0,0,314.28,311.4Z"/><path class="cls-3" d="M345.09,306.64q4.49-8.68,13.3-9.39c3.93-.28,7.05.75,9.39,3.08q8.67,8.55,0,21.43c-.47.56-.94,1.17-1.4,1.82a9.67,9.67,0,0,1,1.4.42q12.18,4.77,14.14,19.47a11.76,11.76,0,0,0,1.82-1.26c.56-.47,1-.89,1.4-1.26s1-1.05,1.82-2,1.59-1.8,2.25-2.45a3.43,3.43,0,0,1,2.66-1.26,4,4,0,0,1,2.73,1.05,3.33,3.33,0,0,1,1.19,2.59,3.92,3.92,0,0,1-1,2.66q-.84.84-2.31,2.52c-1,1.12-1.68,1.89-2.1,2.31s-1.06,1-1.9,1.75a16.32,16.32,0,0,1-2.72,2c-1,.56-2.13,1.17-3.44,1.82l-.28.14v.42a29.87,29.87,0,0,1-8.26,18.07,31.48,31.48,0,0,1-15.69,9.1q-9.11,2-14.42-2.52-6.17-5.46-2.24-15.68,3.49-9.25,18.9-12.47,2.11-.42,6.31-1.05c2.8-.42,4.29-.68,4.48-.77a23.37,23.37,0,0,0,3.5-.7,20.21,20.21,0,0,0-2.73-9.52A14.07,14.07,0,0,0,365,331a8.85,8.85,0,0,0-3.08-.56l-1,1a6.16,6.16,0,0,1-2.25,1.39,3.93,3.93,0,0,1-3.08.15,4.81,4.81,0,0,1-2.52-2.39,3.86,3.86,0,0,1,.14-3.36,2.17,2.17,0,0,1,.56-.84,6.64,6.64,0,0,0,.7-.84l2-2.1a49.8,49.8,0,0,0,5.05-6q5.17-7.56,1-11.76a4.7,4.7,0,0,0-3.5-.84q-4.62.42-7.14,5.32a38.55,38.55,0,0,0-2.52,5.88c-1.12,3.27-1.92,5.46-2.38,6.58a3.87,3.87,0,0,1-2.17,2,3.71,3.71,0,0,1-4.83-2.17,3.62,3.62,0,0,1,.07-2.87q.63-1.39,2.31-6A69,69,0,0,1,345.09,306.64Zm29,47.61c-.47.1-1,.19-1.68.28-.28,0-1.73.19-4.34.56s-4.77.65-6.16.84q-11.36,1.83-13.45,6.31c-1.31,2.8-1.21,4.76.28,5.88s4.2,1.35,7.84.7a26.25,26.25,0,0,0,10.79-4.9A18,18,0,0,0,374.08,354.25Z"/><path class="cls-4" d="M697.1,302.85q-.14,1.13-1.4,8.69-1.26,7-1.82,12.32a76.79,76.79,0,0,0-.7,11.07c.18,3,.56,4.81,1.12,5.46a3.23,3.23,0,0,0,1.4,1.12A2.73,2.73,0,0,0,697,341q2.65-2,6-8.4t8.26-20.87a4,4,0,0,1,2-2.1,3.59,3.59,0,0,1,2.87-.21,3.65,3.65,0,0,1,2.17,1.89,4,4,0,0,1,.28,2.94q-5.32,15.12-8.83,21.85-4.2,8-8.26,10.92a8.76,8.76,0,0,1-6.44,2,9.26,9.26,0,0,1-6.3-3.5c-1.78-2.05-2.8-5.41-3.09-10.08a93.91,93.91,0,0,1,.71-12.47q.55-4.75,1.82-12.32c.84-5,1.3-7.89,1.4-8.55a3.9,3.9,0,0,1,1.47-2.59,3.92,3.92,0,0,1,5.32.71A3.76,3.76,0,0,1,697.1,302.85Zm.84-23.38a3.72,3.72,0,1,1-2.66-1.12A3.62,3.62,0,0,1,697.94,279.47Z"/><path class="cls-4" d="M719.09,296.41a72.37,72.37,0,0,0,11.62,1.82h.14a3.54,3.54,0,0,1,1.26-.14,5,5,0,0,1,5,2,4.56,4.56,0,0,1,.84,2.8,16.21,16.21,0,0,1-.14,1.83c-.09.84-.33,2.1-.7,3.78l-1.4,5.18q-1,3.64-1.4,5.46a103.06,103.06,0,0,0-2.24,11.35q-.84,5.46,0,7.84a6.32,6.32,0,0,0,1.82,2.94,3.59,3.59,0,0,0,2.8,1q5-.29,9.52-9.94A79,79,0,0,0,751.86,315a3.19,3.19,0,0,1,1.47-2.45,3.25,3.25,0,0,1,2.73-.56,3.9,3.9,0,0,1,2.31,1.68,3.1,3.1,0,0,1,.49,2.73,90,90,0,0,1-6,19.05q-6.3,13.72-15.83,14.28a10,10,0,0,1-7.56-2.59,14.64,14.64,0,0,1-4.41-6.72q-1.2-3.85-.21-11a96,96,0,0,1,2.38-12.18q.56-1.81,1.4-5.46l1.26-5,.28-1.12a67.9,67.9,0,0,1-9-1.13l-.56,3.09c-.28,1.21-.52,2.1-.7,2.66a13.23,13.23,0,0,1-.42,1.26l-1,2.8c-.47,1.22-1,2.48-1.55,3.78a3.63,3.63,0,0,1-1.89,2.17,3.25,3.25,0,0,1-2.73.07,3.62,3.62,0,0,1-2-2,3.46,3.46,0,0,1-.07-2.8c.47-1.4.91-2.68,1.33-3.85s.72-2,.91-2.38a6.83,6.83,0,0,0,.42-1.19c.09-.38.23-1.07.42-2.1l1.12-5a1.25,1.25,0,0,1,.14-.56,5,5,0,0,1,.15-1.27,3.47,3.47,0,0,1,1.53-2.38A3.29,3.29,0,0,1,719.09,296.41Z"/><path class="cls-5" d="M599.21,242.05a13.77,13.77,0,0,1,5.15,1.29c.32,0,.47-.14.47-.41a104.78,104.78,0,0,0,14.57.88h1.76a.36.36,0,0,1,.41.41q5.5-.89,10.71-2.17l.47.88L625,249v1.29q0,1.86,6.85,30.9a46.26,46.26,0,0,1,1.29,7.72h.41q.81-1.29,11.18-3,13.86,2.22,18.49,6.84a.78.78,0,0,1-.88.88H662a.78.78,0,0,1-.88-.88c-.27,0-.4.16-.4.47l-5.62-1.28a24,24,0,0,1-4.28.41l-.87-.41q0,.81-6.44,2.1c-.47,0-2.75,1.45-6.85,4.33-.31,0-.6.43-.88,1.29q9.48,29.91,15.45,54.55l1.76,2.57-.47.88q7.5,21.66,17.21,25.75c.27,0,.41.16.41.47l.88-.47h.41q17.21,0,17.2-14.57v-4.74a8.54,8.54,0,0,0-3.45-6.85h-3.86q-4.74,1.11-4.74,4.68c1.44,3.28,2.16,5.85,2.16,7.73q-3,3.86-5.56,3.86-4.21,0-5.15-6.85,1.53-13.33,12.88-13.34T695,369.23q0,7.36-7.73,13.75-2,1.57-9.48,3.86a.36.36,0,0,1-.41-.41l-2.16.41h-5.15q-10.77-2.74-15-9.89-8.14-13.33-11.12-24.05-3.87-8-14.22-48.11-10.43,6.91-19.73,7.73v-.41l-.88.41h-3c-.31,0-.47-.14-.47-.41a10.68,10.68,0,0,1-3,.82v-.41l-.88.41h-3l-6,18.49a.37.37,0,0,1,.41.41c-.55.12-.82.41-.82.88l.41.88q-2.58,6.5-2.58,7.72,7.2,4.4,7.73,5.56,0,.64-1.29,1.29a152.94,152.94,0,0,0-22.36-1.7v-.41l-.82.41c-.31,0-.47-.14-.47-.41a63.63,63.63,0,0,1-6.84,1.29v-.47c0-.27,1.28-1,3.86-2.11h.41l.88.41q0-1.69,10.77-5.15,0-1.27,8.13-22.76a11.73,11.73,0,0,1,1.29-3.87q-8.43,0-14.16-9c-.59-.86-1.18-3-1.76-6.44v-2.57q0-5.5,8.6-6.5,4.46,1.29,5.62,3.46v.4h-.88a3.46,3.46,0,0,1,.41,1.29l.88-.41.41.88v.88a.37.37,0,0,1-.41.41l.41.88v.41c-.58,1.13-1.29,1.69-2.11,1.69l-6.43-3h-.88a3.59,3.59,0,0,1-.41,1.7q2.81,10.75,12,10.76,3.39-11.17,3.86-11.17l-.41-.88,6.44-21-.41-.88,3.39-11.59c0-1.44.16-2.16.47-2.16l-.47-.88a22.15,22.15,0,0,0,1.76-9q-8.31-6-9-7.32ZM573.87,344.3v.46h1.7v-.87h-.41A3.25,3.25,0,0,1,573.87,344.3Zm3.87-46.36v.41c.42,1.13.85,1.7,1.28,1.7h.47l-.47-2.11Zm2.16-4.33.41.88a3.31,3.31,0,0,1,1.76-.47,2.92,2.92,0,0,1-.47-1.69h-.41C580.76,292.33,580.33,292.75,579.9,293.61Zm1.29,10.3v.47a4.32,4.32,0,0,0,2.57,2.11v-.41C583.76,305.65,582.9,304.93,581.19,303.91Zm3.86-10.71a.82.82,0,0,0,.88.82v-.82Zm1.7,48.52-.41.88V343h1.29v-.41A.78.78,0,0,0,586.75,341.72Zm0-49.39c0,.42.43.85,1.29,1.28h.46v-1.28Zm1.75,42.95a54.64,54.64,0,0,0-1.75,6h.88l1.69-6ZM588,295.37v.82h.87v-.82Zm6.43,9.42v.88h.47v-.88Zm2.64-7.72-1.76,6.43c.66,0,1.39-2,2.17-6v-.41Zm1.69,8.13-.41,1.76q.58,0,1.29-1.29v-.47Zm17.62-51.5q-5.62,29.15-12.88,47.23c-.5,0-1.09,1.42-1.75,4.27v2.17q8.31-1.41,25.34-13.76-2.1-9.42-3.86-12.46v-2.58c-1.06,0-1.91-2.57-2.58-7.72-.27,0-.54-1-.82-3l.41-.88a130,130,0,0,1-3-12.87ZM604,245.92v.46h.88v-.46Zm0,32.65h.88c0-.35.14-1.77.41-4.27C604.38,274.3,604,275.72,604,278.57Zm.41,4.33-.41,3c.59,0,1-1,1.29-3Zm.47-1.28v.81h.41v-.81Zm0,10.71v.87h.41v-.87Zm.82-21.07-.41,1.75v.88h.41a4,4,0,0,1,.47-2.17v-.46Zm3.86,3.45-4.27,15.45h.88l4.27-15.45Zm-.81-28.33v.82a3.24,3.24,0,0,1,1.28.47,2.91,2.91,0,0,1-.47-1.29ZM610.8,307v.41h.47c2.58-.59,3.86-1.15,3.86-1.7h-.88A16,16,0,0,0,610.8,307Zm2.17-47.7v.88h.41v-.88Zm10.3-12.88.47.82c1.71-.58,2.57-1.15,2.57-1.69h-.47A6.81,6.81,0,0,1,623.27,246.38Zm.47,6.85v1.29l.41,3H625v-.47l-.46-3.86Zm2.1,7.73v1.75L627.6,270h-.47a9.28,9.28,0,0,1,1.29,3.45H628a5,5,0,0,1,.88,2.58h.41v-.82q-1.29-7.5-3-14.22Zm1.29-16.74-.41.88v.41a3.09,3.09,0,0,1,1.29-.41A.78.78,0,0,0,627.13,244.22ZM626.72,279v1.29c.35,2.85.92,4.27,1.7,4.27a43.94,43.94,0,0,0-1.29-5.56ZM628,286.3a3.65,3.65,0,0,1,.41,1.75h.47V286.3Zm.88,4.33v.82h.41v-.82Zm.41-12.88,1.28,5.56H631l-.82-5.56ZM634,311.23a4.46,4.46,0,0,1,.41,2.16h.87l-.46-2.16Zm2.1,9v.88a27.79,27.79,0,0,0,1.29,5.15h.47v-.88Q637.26,320.25,636.14,320.24Zm1.76-4.68v.82h.41v-.82Zm0,11.12v.47c.51,3.43,1.07,5.15,1.7,5.15a45.25,45.25,0,0,0-1.29-5.62Zm.41-9.83v.82l1.29,6h.46v-1.28l-1.28-5.56Zm.47-27.51v.41h1.28v-.41ZM640.06,334v1.28h.41V334Zm.41,2.16a4.37,4.37,0,0,1,.41,2.17h.88a4.7,4.7,0,0,1-.41-2.17Zm.88,2.58v.41a65.4,65.4,0,0,1,2.58,8.6h.41v-.41q-.95-7.32-2.58-8.6Zm.82-11.18V328a3.24,3.24,0,0,1,.47,1.28l-.88.47q.59,2.58,1.29,2.58l.88-1.29a16,16,0,0,1-1.29-3.45Zm2.17,20.6V349h.41v-.88Zm.41-9.42v.87a2.9,2.9,0,0,1,.46,1.29h.41v-1.29A.77.77,0,0,0,644.75,338.74Zm9.89,30.49q1.64,4.22,2.57,4.27v-.41a13.2,13.2,0,0,1-1.7-3.86Zm17.2-.88v.88c0,.43.43.86,1.29,1.28h.41l-.88-3C672.12,367.61,671.84,367.88,671.84,368.35Zm.41-6v1.29h.41v-1.29Zm1.29.82v1.29H674V363.2Zm2.58-6v.82h.41c.46,0,1.05-.57,1.75-1.7v-.47h-.47C676.68,356.35,676.12,356.8,676.12,357.23Zm0,11.12v1.29H677v-1.29Zm4.33-12.88a24.58,24.58,0,0,1,4.27.41v-.82l-2.17-.46h-1.28C680.72,354.71,680.45,355,680.45,355.47Zm7.25,22.77a4,4,0,0,1-1.28,2.17v.41c.39,0,1-.71,1.75-2.11v-.47Zm.88-18.9a42.18,42.18,0,0,1,2.58,6.43h.41c0-.54.15-.82.46-.82Q690.86,359.34,688.58,359.34Zm1.29,15.92v2.16h.41a3,3,0,0,1,.88-1.75v-1.29h-.41C690.16,374.46,689.87,374.75,689.87,375.26Zm2.57-4.34v.88a.78.78,0,0,0,.88-.88v-.81C692.74,370.18,692.44,370.46,692.44,370.92Z"/><path class="cls-5" d="M509.21,380l2.07-9.1c-.29-2.22-.58-3.33-.88-3.33q0-6.65-8.28-14.11-5.67-3.82-18.2-5.4l-.82.44v-.44q-.87,0-5.83.87-18.19,6.6-18.2,18.64,2.3,5.78,6.21,5.78a11.78,11.78,0,0,0,9.92-5q3-17,15.31-17a33.23,33.23,0,0,1,4.2,1.69q4.68,2.94,7,9.53,0,7.68-5,17.39-3.76,7-26.1,8.71c0-.29-.29-.43-.87-.43l-.82.43a48,48,0,0,1-9.54-2.5,105.68,105.68,0,0,1-15.75-10q-22.89-8.3-30.24-8.29h-.38c0-.1-.05-.34-.07-.48-2.88-.11-5.35-.12-7.37,0,0,.15,0,.43,0,.52h-.43c0-.19,0-.31,0-.49-1.6.08-3,.19-4.08.33a.9.9,0,0,1,0,.16h-.38v-.12a19.71,19.71,0,0,0-3.93.85h-.05l-.19.08h-.09a8.55,8.55,0,0,1-1.95.45q-6.76,1-14.11,9.1v.87c0,1.38.41,2.2,1.25,2.45,1.63,2.22,3.56,3.32,5.77,3.32,1.24,0,2.77-.81,4.58-2.45q5.29-7.46,12.86-7.46a.34.34,0,0,0,.39.38v-.82H406v.82q23.22,0,39.4,8.72,21,10.35,36.46,10.35,8.38-1.14,10.79-2.51Q504.09,388.11,509.21,380ZM462,366.75h-.44V365.5H462Zm4.14-5q0,1.31-2.51,5h-.38V365.5h.38c1.06-2.72,1.89-4.1,2.51-4.14Zm.38-3.71q-.6,1.26-1.2,1.26h-.43c.69-1.13,1.23-1.69,1.63-1.69Zm3.33,5h-.39v-.81h.39Zm-2.89-5.39v-.38c0-.48,1.29-1.46,3.76-3h.38Q471.06,355,466.92,357.6Zm5,5.83a.73.73,0,0,1-.82.82v-.44c0-.44.27-.71.82-.82Zm.43-1.25v-.44c1.09-1.82,1.64-3.05,1.64-3.71l.87.44C473.47,360.94,472.64,362.18,472.31,362.18Zm4.14-9.1a3.21,3.21,0,0,0-1.25.38h-.38l.38-.82h1.25Zm-93.24,27.3c-.47,0-.74-.27-.81-.82v-.38h.81Zm7,.87c-.11.54-.8,1.09-2.07,1.63h-.38v-.38c.11-.58.8-1.14,2.07-1.69h.38Zm2.07-2.51a.72.72,0,0,1-.81.82h-.82v-.82a3,3,0,0,0,1.25-.43h.38Zm0-2.89a2.83,2.83,0,0,0-1.19.39h-.88v-.39a4.36,4.36,0,0,0,2.07-.81Zm5.83-2.88-2.5.38h-.82V373a4.72,4.72,0,0,0,2.89-.88h.43Zm7-1.69a40.23,40.23,0,0,1-6.22,1.25v-.82c2.84-.36,4.63-.78,5.4-1.25,0,.29.27.44.82.44Zm7.9,3.76-4.14-.44a.39.39,0,0,1-.44.44.39.39,0,0,0-.44-.44l-.81.44c0-.29-.28-.44-.82-.44v-.44h6.65c.54,0,.81.3.81.88Zm22.34,2.07h-1.64q-9.48-3.17-9.53-4.14,3.81,0,11.17,3.7Zm5,1.2H440a3.3,3.3,0,0,0-1.26-.39v-.43h.44a2.68,2.68,0,0,0,1.2.43Zm6.65,3.76h-1.26q-1.2-.66-1.2-1.26h.82a2.83,2.83,0,0,0,1.64.82Zm3.32,3.32h-.82V385h.82Zm1.64.82h-.39c-.47,0-.74-.27-.81-.82H452Zm52.2-26.54h.44q3.71,6.38,3.7,10.79c-.54,1.09-.94,1.63-1.2,1.63a22.88,22.88,0,0,0-2.94-12Zm0,14.11-.38,2.89-.82-.43.38-2.89h.82Zm-4.52-19.51h.82q3.31,2.07,3.32,4.2v.38C503.56,358.85,502.18,357.33,499.67,354.27Zm2.45,14.94h.44V370l-.44,2.07h-.82Zm-1.2,4.57h.38v.38c-1.09,3.35-1.9,5-2.45,5Q500.92,374,500.92,373.78Zm-24,18.64H476V392h.87Zm1.63,0h-1.25V392h1.25Zm12-2.07a86.8,86.8,0,0,1-9.1,2.07H479v-.82q1.2,0,11.55-2.07Zm-.38-1.64q2.5-1.95,10.79-5h.38q-2.55,3.17-10.35,5Z"/><path class="cls-5" d="M419.83,375h.1l.2-.08A2.64,2.64,0,0,1,419.83,375Z"/><path class="cls-5" d="M416.8,268.68c.31,0,1.05-1,2.22-3.1v-3.1a10.23,10.23,0,0,1,3.57-7.55q1.35,13.76,1.35,18.67v5.79l.47.88h-.47l.47,2.22v4a42.73,42.73,0,0,1-.94,8.9c.31,4.83.47,9.13.47,12.87V311l.47.87h-.47l.47,2.69a3,3,0,0,0-.47,1.29l.47.94c-.31,0-.47.14-.47.41V323q0,3.11-.47,9.78c.31,0,.47.29.47.87a.42.42,0,0,0-.47.47l.47,3.1a70,70,0,0,1-.88,9.37l.41.88q-1.29,16.79-1.28,23.58l-.47,2.23a.41.41,0,0,1,.47.46,7.11,7.11,0,0,1-2,1.19,21.09,21.09,0,0,1,4.22-.91v-.28l.41-2.69-.41-.88c.27,0,.41-.15.41-.46v-.41a4.06,4.06,0,0,0-.41-1.82c.58-.66.88-2.89.88-6.67h.41a3.58,3.58,0,0,0,.46,1.81l-.46.88.46,1.76a59,59,0,0,1-1.31,8.72c1.19-.15,2.66-.27,4.38-.35-.24-2.67-.37-4.77-.37-6.15v-6.2h.87v3.1l.41.88h-.41a3.57,3.57,0,0,0,.41,1.34,3.93,3.93,0,0,1-.41,1.82l.41.88c-.22,2.18-.33,3.5-.37,4.3,2.17-.09,4.82-.08,7.91,0-.31-1.92-.73-6.56-1.27-14.17a3.17,3.17,0,0,0,.41-1.28q-1.29,0-2.64-22.71a3.47,3.47,0,0,0,.41-1.35c-.27,0-.41-.15-.41-.47h.41l-.41-3.1V318.08l-.47-2.23c.32,0,.47-.13.47-.41l-.47-.88q2.06-8,8.9-8a7.06,7.06,0,0,1,6.26,3.1q5.16,11.53,5.8,11.59,1.63,4.44,2.22,4.44c.59,0,.88-.31.88-.93v-20l-.47-.87h.47l-.47-3.11.47-1.81c-.31,0-.47-.14-.47-.41a.42.42,0,0,0,.47-.47v-.88l-.47-.87a.42.42,0,0,0,.47-.47V278.51h-.88l-2.69,9.31a36.64,36.64,0,0,1-9.78,12.93q-5.67,0-8.48-1.81-2.22,0-2.23-11.12a160.8,160.8,0,0,1,1.35-21.36h-.47c-.27,0-.41-1-.41-3.1q.7-13.35,6.21-13.35v.47a143.15,143.15,0,0,1,16.91-1.35h3.57l2.22.41c0-.27.16-.41.47-.41,3.71,0,5.93,1.49,6.67,4.45l-.46.88q-2.58-2.22-4.45-2.22H464c-1.83,0-3.31,1.32-4.45,4V258q0,2.4,7.55,3.1a13.06,13.06,0,0,0,7.61-4.45,18.53,18.53,0,0,0-1.81-7.55q-6.5-5.79-17.33-5.79h-2.22q-26.34,2.06-32.07,6.2A22.72,22.72,0,0,0,411,260.25V262a7.34,7.34,0,0,0,3.57,6.67Zm35.64,31.19h.41v2.64h-.41Zm12.41-43.65H464v-.41l.88-1.35q2.22.58,2.22,1.35Zm-28.91-6.68h.47V250a4.15,4.15,0,0,0-2.23,1.35h-.47C433.83,250.54,434.57,249.93,435.94,249.54Zm-3.57,119.28H432v-2.64h.41Zm0-3.1H432v-1.35h.41Zm0-3.11V364l-.88-.47C431.49,363,431.78,362.69,432.37,362.61Zm-2.64-25.81h.41a3.22,3.22,0,0,0,.47,1.35h-.47l.47,1.76-.47,2.22h-.41Zm-2.22,24a.42.42,0,0,0-.47.47l-.88-.47.47-2.63H427a2.88,2.88,0,0,0,.47,1.28.42.42,0,0,0-.47.47Zm-.88-19.14v-3.51H427v3.51Zm.41,5.8V355h-.41v-7.55ZM426.16,335v-.41c0-.51.3-.82.88-.94v2.23C426.54,335.87,426.24,335.58,426.16,335Zm1.35-58.7c.27,0,.41-.16.41-.47l-.41-.88h1.35v.41l-.47,2.69a3.31,3.31,0,0,1,.47,1.35c0,.9-.31,1.35-.94,1.35A18.38,18.38,0,0,0,427.51,276.29Zm0-2.69v-3.1l.88.4c-.31,1.57-.47,2.46-.47,2.7Zm.88,14.69v-1.35h.47v1.35Zm.88,72.1h-.41v-.94h.41ZM427,257.56v-.88h.47a.78.78,0,0,1,.88.88v2.69l.47,3.11h-.94a7.07,7.07,0,0,0-.88-2.64h.47Zm-.41,48.05H427v.94h-.41Zm-.47,9.36.47-2.22c-.31,0-.47-.14-.47-.41.32-2.65.47-4.29.47-4.92H427a3.31,3.31,0,0,0,.47,1.76.42.42,0,0,0-.47.47v6.67l-.41,2.22h-.47Zm0,4,.88.41a.78.78,0,0,1-.88.88Zm0,1.76h.47v1.34h-.47Zm0,2.22h.47v3.1c-.5,0-.82-.29-.93-.87Zm-.46,4h.93a3.85,3.85,0,0,0,.41,1.82h-.41L427,331v.88l-.41.88c-.5,0-.82-.3-.93-.88Zm-8.9-69.82h.47v.41a9,9,0,0,0-1.35,5.39v.41h-1.34a3.56,3.56,0,0,0-.41-1.35Q414.17,261.25,416.8,257.15Z"/><rect class="cls-5" x="508.57" y="297.36" width="0.41" height="2.11"/><path class="cls-5" d="M560.25,340.84V334.4c0-3.16.42-4.74,1.28-4.74a4.85,4.85,0,0,0-.82-2.16c1.1-5,2.09-7.77,3-8.19l-.41-2.17h-.47q-3.57,0-12.05,10.77-2.7,9.82-3.46,9.95a3,3,0,0,0,.47,1.29l-.47.87-4.27-.46H531l-.87.46c0-.31-.14-.46-.41-.46h-.47l-.88.46v-.46q-14.69,1.28-17.21,1.28A172.51,172.51,0,0,0,512.43,318l-.41-2.58c.27,0,.41-.43.41-1.29v-3L512,309a.37.37,0,0,0,.41-.41,36.28,36.28,0,0,1-.41-4.74v-6.44l-.47-.88c.31,0,.47-.14.47-.41V288.7l.41-2.58A4.46,4.46,0,0,1,512,284v-.82a56.39,56.39,0,0,1,.41-6l-.41-.88a3.68,3.68,0,0,0,.41-1.75v-8.61l.41-3c-.27,0-.41-.16-.41-.47a22.78,22.78,0,0,0,.41-3.86v-1.29L512,256v-3l-.47-2.11a.42.42,0,0,0,.47-.47,3.16,3.16,0,0,1-.47-1.69v-7.32c0-.51.3-.8.88-.88h.88a14.33,14.33,0,0,1,6.44,2.58h1.75l-.47-.88h.88v-.82q-6-3.75-6-4.74c-2.88-.66-4.33-1.39-4.33-2.17a3.27,3.27,0,0,0,.47-1.75v-3.4a36.28,36.28,0,0,1,.41-4.74q0-1.45,8.6-4.33,6-4.62,9.08-5.15v-1.34l-2.17.46-.88-.46c-.58,1.24-3,2.26-7.31,3a.37.37,0,0,0-.41-.41h-.41l-2.17.41c0-.27-.15-.41-.47-.41l-.82.41c0-.27-.15-.41-.46-.41h-.82q-15,0-21.6-3.92l-2.11.47v.82q.3,2.28,11.59,7.37,1,0,2.17,14.63l-.88,1.29q-9.89,4.8-9.89,5.62v.82c1.17.15,1.75.6,1.75,1.34q1.81,0,7.73-3c.86,0,1.29.29,1.29.88v8.6q-1.29,0-1.29,5.15v7.32l-.41,2.63a4.32,4.32,0,0,1,.41,2.11v6.49l.41.88a.37.37,0,0,0-.41.41v.88a69.24,69.24,0,0,1-.41,8.6,57.41,57.41,0,0,1,.41,6.91q-1.29,17.55-1.29,21.53c.25,11.84.51,20.33.79,25.8l.5,1.36v-.47a23.62,23.62,0,0,1,.41-3.86,3.25,3.25,0,0,1-.41-1.29c.58,0,.88,1.45.88,4.33h.41v-2.16q-.42-6.5-.88-6.91h.47l-.47-3.86a3,3,0,0,1,.47-1.29l-.88-5.21h.41l-.41-3,.41-2.17h.47V318h.41v-2.17a23.89,23.89,0,0,0-.41-3.45,29,29,0,0,0,.41-5.15l-.41-2.17c.27,0,.56-1.58.88-4.74l-.47-4.27q0-7.54.88-21.59H506v.46l-.47,2.17c.32,0,.47.14.47.41h-.47l.47,2.16v9.89q0,6.27-.47,19.38c-.27,0-.4.29-.4.87.27,0,.4.16.4.47a.36.36,0,0,0-.4.41,3.55,3.55,0,0,0,.4,1.7,3.67,3.67,0,0,0-.4,1.75v12.06l.4,2.17c-.27,0-.4.13-.4.41l.87,10.77-.87,1.75c-.28,0-.41-.16-.41-.47a3.22,3.22,0,0,0-1.35.47H503l0,5.65a12.59,12.59,0,0,1,1.5-.21,15.83,15.83,0,0,1,2,.2c.3,0,.52-.06.84-.08h3q0-1.29.87-1.29h6a60.05,60.05,0,0,0,7.79-.41l24.11,1.29h.41q2.34,5.69,10.36,10.77a3.52,3.52,0,0,0,1.69-.41l.88.41h.41v-.41l-.41-.88a.78.78,0,0,0,.88-.88Q560.25,355.06,560.25,340.84Zm-50.39-71.52h.41v6l.46,2.17h-.87a4.48,4.48,0,0,0-.41-2.17h.41Zm-.41-33.59h-.88v-.41l.41-2.63a3.09,3.09,0,0,1-.41-1.29V231a.78.78,0,0,1,.88.88Zm-2.64,0q0-4,.47-11.18a.81.81,0,0,1,.82-.87v5.61l.47.82a.42.42,0,0,0-.47.47v4.74a.72.72,0,0,1-.82.82h-.47Zm0,6,.47-.88.82.47a13,13,0,0,1-.41,3l.41,1.76-.41.82c-.47,0-.76-.27-.88-.82Zm1.29,9.89v2.58h-.82v-2.58Zm-.41,82.29a3.55,3.55,0,0,0-.41-1.29l.41-.82-.41-2.63h-.47V331h-.41v-.88q.42-25.8.41-31.89a46.61,46.61,0,0,1,.88-7.73c-.47,0-.76-.29-.88-.88V268.45a45.78,45.78,0,0,1,.88-6.85,3.25,3.25,0,0,0-.41-1.29c.27,0,.41-.15.41-.47v-1.28h-.41c0-1.45.27-2.17.82-2.17,0,3.16.16,4.74.47,4.74a3.31,3.31,0,0,0-.47,1.76v.41q0,6.49-.41,15.1v.82h.41v-2.11H509v1.29a3.52,3.52,0,0,1-.41,1.69,3.72,3.72,0,0,1,.41,1.76v4.27l.47.88c-.32,0-.47.14-.47.41v9.95l.88-.47a6.55,6.55,0,0,0,.41,3l-.82,3-.88-.41q0,3.21-1.29,24.58v2.11h.41a87.71,87.71,0,0,1,.88-9H509c0,2.38.15,3.67.47,3.87-.59,0-1,3.29-1.35,9.89ZM510.27,312v.41q0,2.28-.41,7.32h-.41l-.47-3v-1.29C509,313.34,509.41,312.18,510.27,312Zm0,26.28V340h-.82l.82-11.64c.58,0,.87.27.87.82a3.56,3.56,0,0,1-.41,1.75,3.48,3.48,0,0,1,.41,1.7l-.41,2.16c.28,0,.41.16.41.47C510.67,335.28,510.38,336.28,510.27,338.27ZM543,342.6h-8.6l-3.05-.47c0,.31-.13.47-.41.47a83.32,83.32,0,0,0-10.36-.47v-.41a3.34,3.34,0,0,0,1.7-.41c0,.27.16.41.47.41h4.74l3-.41c0,.27.15.41.46.41s1.06-.14,2.58-.41a51.42,51.42,0,0,1,9.48.82Zm9-4.33-.41,2.16a.36.36,0,0,1,.41.41v.47h-.82l-.46-4.33c0-.47.29-.76.87-.88h.41c0,.31-.13.47-.41.47Zm1.76,3.45h-.47v-3.45h.47Zm.41-6.91-.41,3.05h-.47V337l.47-3h.41Zm3.86,17.27c-.7,0-1.13-1.44-1.29-4.33h.88l.41,3.86Zm1.76.82h-.41l-.88-3v-2.57h.88c.27,2.5.41,3.92.41,4.27Z"/><path class="cls-6" d="M678.28,157.84,680,57.22s95.61-3.29,101.38,100.62Z"/><circle class="cls-2" cx="170.79" cy="161.39" r="53.87" transform="translate(-25.63 290.37) rotate(-76.67)"/><path class="cls-7" d="M967,233.45H891.36v87.43a33.26,33.26,0,0,0,22.34,8.69h11.57A42.67,42.67,0,0,0,968,286.9V234.44A1,1,0,0,0,967,233.45Z"/><rect class="cls-8" x="130.34" y="517.47" width="95.43" height="95.43"/><path class="cls-6" d="M130.34,518.06H34.61V422.34h56.6a39.12,39.12,0,0,1,39.13,39.12Z"/><circle class="cls-2" cx="772.86" cy="654.32" r="51.28" transform="translate(-190.96 343.67) rotate(-22.39)"/><path class="cls-8" d="M626.93,702.9V603.05h99.85v60.72a39.13,39.13,0,0,1-39.13,39.13Z"/></svg>